<svg xmlns="http://www.w3.org/2000/svg" width="16" height="21.001" viewBox="0 0 16 21.001">
  <path id="Forma_1" data-name="Forma 1" d="M45,1164.63c0-.276,0-.434,0-.519,0,.045.005.024.013-.368.09-4.81.776-6.2,5.668-7.079a3.479,3.479,0,0,0,4.638,0c4.946.891,5.593,2.3,5.671,7.24.005.317.008.371.009.343v.384S59.82,1167,53,1167,45,1164.63,45,1164.63Zm16-.384C61,1163.917,61,1164.2,61,1164.245Zm-16-.135C45,1164.062,45,1163.937,45,1164.11Zm3.765-12.976c0-2.836.623-5.135,4.235-5.135s4.234,2.3,4.234,5.135-1.9,5.135-4.234,5.135S48.765,1153.97,48.765,1151.134Z" transform="translate(-45 -1145.999)" fill="#aaa"/>
</svg>
