<svg xmlns="http://www.w3.org/2000/svg" width="16" height="19" viewBox="0 0 16 19">
  <path id="_5" data-name="5" d="M59.769,701.374H56.077c-.364-1.033-.763-2.375-2.461-2.375-2.545,0-3.328,1.342-3.692,2.375H46.231c-.982,0-1.231,1.391-1.231,2.375v12.469A1.779,1.779,0,0,0,46.778,718H59.222A1.779,1.779,0,0,0,61,716.218V703.749C61,702.765,60.751,701.374,59.769,701.374ZM53,701.967a.891.891,0,1,1-.889.891A.889.889,0,0,1,53,701.967ZM55,715H48v-2h7Zm3-4H48v-2H58Zm0-4H48v-2H58Z" transform="translate(-45 -698.999)" fill="#aaa"/>
</svg>
