<svg id="logo_white" data-name="logo white" xmlns="http://www.w3.org/2000/svg" xmlns:xlink="http://www.w3.org/1999/xlink" width="533.37" height="158.057" viewBox="0 0 533.37 158.057">
  <defs>
    <clipPath id="clip-path">
      <rect id="Rectangle_1" data-name="Rectangle 1" width="533.37" height="158.057" fill="none"/>
    </clipPath>
  </defs>
  <g id="Group_1" data-name="Group 1" clip-path="url(#clip-path)">
    <path id="Path_1" data-name="Path 1" d="M61.193,140.923c-32.518,0-57.551-22.6-60.881-54.959-.009-.106-.021-.213-.028-.319C-1.646,62.913,5.927,31.784,33.614,18.858a63.773,63.773,0,0,1,27.8-6.292A64.748,64.748,0,0,1,107.3,31.526,59.362,59.362,0,0,1,124.435,73.32c1.568,18.147-3.577,34.335-14.912,46.866C97.6,133.365,79.984,140.923,61.193,140.923Z" transform="translate(0 17.134)" fill="#183887"/>
    <path id="Path_2" data-name="Path 2" d="M71.792,156.866c-7.483-.293-16.924-4.408-19.41-22.33h.009c-.463-3.221-2.638-18.849-14.263-102.337-.791-5.436-2.938-20.17,10.168-26.4A17.723,17.723,0,0,1,51.08,4.749,101.147,101.147,0,0,1,78.352.861c7.509,0,17.023,3.779,20.194,21.787.39,2.167.8,4.417,1.207,6.724a19.268,19.268,0,0,1,10.86-3.385,18.676,18.676,0,0,1,9.486,2.64,76.573,76.573,0,0,1,20.058,17.462c.319.395.621.8.907,1.222,7.771,11.456-.458,22.654-4.116,27.549-1.544,2.139-3.275,4.5-5.065,6.923,1.561,1.465,12.178,11.4,15.729,14.739,11.011,10.066,13.748,19.787,8.135,28.9a84.713,84.713,0,0,1-17.956,20.593,17.928,17.928,0,0,1-4.968,2.921,18.662,18.662,0,0,1-6.756,1.257h0c-4.923,0-9.028-1.841-12.737-4.209a18.416,18.416,0,0,1-9.826,6.493,122.067,122.067,0,0,1-30.75,4.408H72.5c-.236,0-.47,0-.706-.014" transform="translate(51.047 1.174)" fill="#183887"/>
    <path id="Path_3" data-name="Path 3" d="M181.984,156.492c-23.942,0-38.592-9.792-46.668-18.005a57.217,57.217,0,0,1-16.275-40.423A58.143,58.143,0,0,1,134.9,57.781c7-7.367,18.957-15.984,37.539-17.889l1.237-15.679C174.048,19.144,175.2,3.429,189.819.52a17.41,17.41,0,0,1,2.317-.3C194.273.071,196.443,0,198.585,0a98.078,98.078,0,0,1,20.768,2.231c7.339,1.527,15.8,7.228,15.087,25.557l-4.054,102.987c-.451,21.274-12.964,24.5-18.336,24.9-.187.014-.371.026-.557.033q-3.16.135-6.312.137h0c-3.268,0-6.543-.113-9.762-.336a95.921,95.921,0,0,1-13.431.986" transform="translate(162.06 0)" fill="#183887"/>
    <path id="Path_4" data-name="Path 4" d="M189.752,156.4c-2.935,0-5.9-.1-8.827-.312-.4-.028-.793-.069-1.188-.125-5.965-.822-16.142-4.98-17.29-23.552-.024-.355-.035-.707-.035-1.059l-4.125-62.512c-.5-7.083.512-12.309,2.345-16.159A35.031,35.031,0,0,1,155.358,36c-1.058-18.05,11.294-32.7,29.371-34.829.177-.021.354-.038.534-.054.992-.085,1.972-.13,2.949-.13a33.671,33.671,0,0,1,30.464,47.887c3.459,5.242,4.442,11.815,4.711,15.6q1.01,15.915,2.087,31.907c.708,10.626,1.414,21.253,2.076,31.7,1.71,20.844-10.307,25.363-15.571,26.337a125.894,125.894,0,0,1-22.225,1.988Z" transform="translate(211.415 1.348)" fill="#183887"/>
    <path id="Path_5" data-name="Path 5" d="M234.781,140.789c-30.266,0-61.226-20.723-61.837-60.321,0-.109,0-.22,0-.331.066-22.822,10.331-53.176,39.043-63.609a63.8,63.8,0,0,1,22.568-4.086,64.687,64.687,0,0,1,47.967,21.106,59.2,59.2,0,0,1,15.2,45.15c-.019,17.225-5.92,32.288-17.1,43.616-11.594,11.74-28.3,18.476-45.827,18.476Z" transform="translate(235.437 16.963)" fill="#183887"/>
    <path id="Path_6" data-name="Path 6" d="M134.162,140.781a75.6,75.6,0,0,1-10.47-.721c-1.334-.184-2.7-.421-4.045-.688a17.884,17.884,0,0,1-8.683-4.406,17.934,17.934,0,0,1-9.615-3.893,53.284,53.284,0,0,1-13.79-17.594,17.98,17.98,0,0,1-1.655-4.864,17.953,17.953,0,0,1-2.319-4.406,115.757,115.757,0,0,1-4.267-15.193,17.936,17.936,0,0,1-.378-4.588,18.009,18.009,0,0,1-1.226-4.375C77,75.248,76.471,70.219,76.126,65.1a17.968,17.968,0,0,1,.3-4.684,17.886,17.886,0,0,1-.6-5.88c2.361-37.79,23.231-41.869,32.1-41.869.7,0,1.4.024,2.09.071,14.541.976,26.48,12.439,28.346,27.251l.512,4.051a17.882,17.882,0,0,1,.042,3.954,17.813,17.813,0,0,1,.876,3.385c.111-.043,28.466-9.877,28.466-9.877a17.959,17.959,0,0,1,23.812,17.818l-.486,10.369c-.017.35-.043.7-.08,1.054s-.042.7-.042,1.052c0,.319-.009.641-.026.96l.007.012a18.02,18.02,0,0,1-.744,5.129,18.059,18.059,0,0,1,.293,4.2l-.718,15.129a18.042,18.042,0,0,1-.7,4.19,17.962,17.962,0,0,1-1.457,11.208,41.013,41.013,0,0,1-16.452,17.889c-9.845,6.537-23.425,10.267-37.487,10.267Z" transform="translate(103.166 17.269)" fill="#a9277c"/>
    <path id="Path_7" data-name="Path 7" d="M115.94,89.051A17.944,17.944,0,0,1,98.352,74.692c-.073-.359-.144-.775-.2-1.175-.057-.376-.1-.756-.132-1.134l-.04-.409c-.064-.674-.125-1.364-.163-2.082-2.444-36.745,20.421-59.307,42.7-64.623a33.347,33.347,0,0,1,7.75-.886c14.546,0,31.72,8.92,41.768,21.692,7.275,9.251,9.982,19.731,7.623,29.513-3.266,13.6-14.336,21.737-29.6,21.737h0a70.006,70.006,0,0,1-13.214-1.487,17.914,17.914,0,0,1-4.1,2.063L121.886,88.037a17.946,17.946,0,0,1-5.946,1.014" transform="translate(132.916 5.976)" fill="#a9277c"/>
    <path id="Path_8" data-name="Path 8" d="M96.135,63.749c.432-33.6-36.174-52.99-65.273-38.974-18.2,8.5-24.613,30.366-23.033,48.981,5.941,57.769,94.105,48.3,88.306-10.007M65.886,74.494c-3.07,11.643-24.414,11.966-28.1.664C35.941,66.838,36.534,51.745,47,50.093,63.947,47,69.638,59.814,65.886,74.494" transform="translate(10.344 27.501)" fill="#fff"/>
    <path id="Path_9" data-name="Path 9" d="M125.057,99.348c-8.8-8.265-18.688-17.483-27.467-25.767,4.364-5.965,10.215-13.746,14.525-19.728,0,0,4.38-5.859,3.733-6.812a58.891,58.891,0,0,0-15.4-13.4c-1.041-.629-6.319,5.138-6.319,5.138L77.716,56.117C75.456,43.43,72.8,28.1,70.5,15.4c0,0-1.221-6.935-2.423-6.935a83.151,83.151,0,0,0-22.44,3.2c-1.131.539-.09,7.691-.09,7.691S59.784,121.61,59.8,121.7c.09.648.987,6.793,2.335,6.847A103.9,103.9,0,0,0,88.4,124.772c1.507-.411.071-7.688.071-7.688-.808-4.817-2.189-12.309-3.015-17.088,7.431,5.658,16.409,12.38,23.824,18.112.035-.035,5.349,4.221,6.695,3.7a66.817,66.817,0,0,0,14.128-16.19c.666-1.078-5.044-6.27-5.044-6.27" transform="translate(61.411 11.541)" fill="#fff"/>
    <path id="Path_10" data-name="Path 10" d="M202.088,119.881l4.059-103.155s.274-7.057-.848-7.277A79.928,79.928,0,0,0,182.97,7.777c-1.218.243-1.752,7.485-1.752,7.485l-2.567,32.47c-69.332-9.454-71.238,91.959,5.738,79.333a124.786,124.786,0,0,0,15.982.319c1.587-.116,1.717-7.5,1.717-7.5m-27.4-21.633C155.963,101.3,152.856,87.281,158.7,80.207c5.866-7.076,17.637-2.836,17.637-2.836Z" transform="translate(172.411 10.367)" fill="#fff"/>
    <path id="Path_11" data-name="Path 11" d="M193.458,22.9a15.679,15.679,0,0,0-16.983-14.25c-20.268,2.389-16.586,31.858,2.73,31.229A15.68,15.68,0,0,0,193.458,22.9m5.835,96.131c-1.329-20.969-2.836-42.675-4.165-63.644,0,0-.484-6.809-1.849-6.864a118.405,118.405,0,0,0-26.551,1.42c-1.363.414-.878,7.348-.878,7.348l4.2,63.644h-.038s.413,6.665,1.832,6.864a107.4,107.4,0,0,0,26.516-1.42c1.544-.286.933-7.348.933-7.348" transform="translate(221.766 11.716)" fill="#fff"/>
    <path id="Path_12" data-name="Path 12" d="M207.759,23.05c-18.886,6.864-27.161,28.1-27.215,46.771.9,58.074,89.562,56.332,88.863-2.262,3.339-33.422-31.435-55.937-61.648-44.509m30.573,52.576c-4.076,11.338-25.366,9.792-28.06-1.78-1.112-8.461.791-23.448,11.365-24.186,17.162-1.581,21.722,11.68,16.695,25.965" transform="translate(245.788 27.33)" fill="#fff"/>
    <path id="Path_13" data-name="Path 13" d="M115.319,77q-.485-5.793-1.112-11.7L86.525,74.9a98.34,98.34,0,0,0,3.589,12.829L115.7,78.855A6.276,6.276,0,0,1,115.319,77M135.641,57.87c.2,4.58.5,9.182.862,13.763l26.587-9.218.038-.017c0-.324,0-.648.017-.971,0-.934.054-1.87.125-2.822l.019-.125.484-10.366Zm.484,22.207-8.418,2.931L93.2,94.955a35.648,35.648,0,0,0,9.049,11.751l59.726-20.7.718-15.129Zm-23.354,31.3c1,.2,2.028.376,3.07.52,12.888,1.815,27.34-.969,36.136-7.133a22.291,22.291,0,0,0,9.606-10.314ZM111.694,43.8,83.689,53.521c.25,3.72.682,8.426,1.436,13.548l28.2-9.775c-.52-4.491-1.077-9-1.632-13.493m-1.509-11.931A13.048,13.048,0,0,0,98.409,20.3c-6.482-.449-13.715,4.044-15.025,24.994l27.3-9.452c-.163-1.328-.342-2.659-.5-3.971" transform="translate(113.517 27.635)" fill="#fff"/>
    <path id="Path_14" data-name="Path 14" d="M134.323,12.381c-13.554,3.236-30.825,17.826-28.939,46.178.035.667.106,1.3.161,1.9.019.09.019.163.035.253l28.849-10.135c.269-2.03,1.221-3.845,3.592-4.188,5.941-.808,28.327,9.182,31.829-5.389,3.518-14.59-21.973-31.858-35.527-28.624m16.605,20.071a4.349,4.349,0,1,1,4.345-4.349,4.363,4.363,0,0,1-4.345,4.349" transform="translate(143.273 16.343)" fill="#fff"/>
  </g>
</svg>
