<svg xmlns="http://www.w3.org/2000/svg" width="16.01" height="16.007" viewBox="0 0 16.01 16.007">
  <path id="vvxczvcv" d="M54.489,1111.758l-.579-.579,5.758-5.757.418,1.255a.816.816,0,0,1-.2.837l-4.243,4.244a.818.818,0,0,1-1.157,0ZM48.7,1110.6l-2.315-2.314a.819.819,0,0,1,1.157-1.158l2.315,2.315A.818.818,0,0,1,48.7,1110.6Zm3.472-1.157-1.736-1.735,1.157-1.157,4.822-4.821h0l.02-.022.019-.02.017-.022.019-.023.013-.018.02-.028.011-.018a.347.347,0,0,0,.018-.031l.014-.026c0-.008.008-.014.012-.022l.015-.036c0-.005,0-.01.006-.014a.823.823,0,0,0,.022-.532.067.067,0,0,0,0-.013c-.006-.021-.014-.042-.022-.062a.172.172,0,0,0-.01-.022l-.023-.05-.014-.022c-.009-.016-.018-.032-.028-.048s-.02-.027-.03-.041l-.019-.025a.6.6,0,0,0-.056-.061.817.817,0,0,0-1.157,0l-5.98,5.978-1.735-1.735h0l-.579-.578,1.157-1.157,3.886-3.885L53.3,1097.9l.8-.8c.693-.692,1.914-1.054,3.736-1.1a17.388,17.388,0,0,1,2.344.1.817.817,0,0,1,.712.712,17.372,17.372,0,0,1,.1,2.344c-.051,1.82-.412,3.042-1.105,3.735l-.8.8-1.294,1.293-3.044,3.045-.842.841-1.157,1.157ZM45.23,1102.5a.818.818,0,0,1,0-1.157l4.243-4.243a.82.82,0,0,1,.838-.2l1.256.419-5.758,5.757Z" transform="translate(-44.99 -1095.991)" fill="#aaa"/>
</svg>
