<svg width="27" height="30" viewBox="0 0 27 30" fill="none" xmlns="http://www.w3.org/2000/svg">
<path d="M5.625 0C4.59375 0 3.75 0.84375 3.75 1.875V28.125C3.75 29.1562 4.59375 30 5.625 30H24.375C25.4062 30 26.25 29.1562 26.25 28.125V7.5L18.75 0H5.625Z" fill="#E2E5E7"/>
<path d="M20.6245 7.5H26.2495L18.7495 0V5.625C18.7495 6.65625 19.5933 7.5 20.6245 7.5Z" fill="#B0B7BD"/>
<path d="M26.25 13.125L20.625 7.5H26.25V13.125Z" fill="#CAD1D8"/>
<path d="M22.5 24.3735C22.5 24.8892 22.0781 25.311 21.5625 25.311H0.9375C0.421875 25.311 0 24.8892 0 24.3735V14.9985C0 14.4829 0.421875 14.061 0.9375 14.061H21.5625C22.0781 14.061 22.5 14.4829 22.5 14.9985V24.3735Z" fill="#F15642"/>
<path d="M4.08594 17.7602C4.08594 17.5127 4.28094 17.2427 4.595 17.2427H6.32656C7.30156 17.2427 8.17906 17.8952 8.17906 19.1458C8.17906 20.3308 7.30156 20.9908 6.32656 20.9908H5.075V21.9808C5.075 22.3108 4.865 22.4974 4.595 22.4974C4.3475 22.4974 4.08594 22.3108 4.08594 21.9808V17.7602ZM5.075 18.1867V20.0542H6.32656C6.82906 20.0542 7.22656 19.6108 7.22656 19.1458C7.22656 18.6217 6.82906 18.1867 6.32656 18.1867H5.075Z" fill="white"/>
<path d="M9.64641 22.4997C9.39891 22.4997 9.12891 22.3647 9.12891 22.0356V17.7775C9.12891 17.5084 9.39891 17.3125 9.64641 17.3125H11.363C14.7886 17.3125 14.7136 22.4997 11.4305 22.4997H9.64641ZM10.1189 18.2275V21.5856H11.363C13.387 21.5856 13.477 18.2275 11.363 18.2275H10.1189Z" fill="white"/>
<path d="M15.9298 18.2884V19.48H17.8414C18.1114 19.48 18.3814 19.75 18.3814 20.0116C18.3814 20.2591 18.1114 20.4616 17.8414 20.4616H15.9298V22.0356C15.9298 22.2981 15.7433 22.4997 15.4808 22.4997C15.1508 22.4997 14.9492 22.2981 14.9492 22.0356V17.7775C14.9492 17.5084 15.1517 17.3125 15.4808 17.3125H18.1123C18.4423 17.3125 18.6373 17.5084 18.6373 17.7775C18.6373 18.0175 18.4423 18.2875 18.1123 18.2875H15.9298V18.2884Z" fill="white"/>
<path d="M21.5625 25.3135H3.75V26.251H21.5625C22.0781 26.251 22.5 25.8291 22.5 25.3135V24.376C22.5 24.8916 22.0781 25.3135 21.5625 25.3135Z" fill="#CAD1D8"/>
</svg>
